<?xml version="1.0" encoding="UTF-8"?>
<svg width="7676px" height="1143px" viewBox="0 0 7676 1143" version="1.1" xmlns="http://www.w3.org/2000/svg" xmlns:xlink="http://www.w3.org/1999/xlink">
    <!-- Generator: Sketch 48 (47235) - http://www.bohemiancoding.com/sketch -->
    <title>Group 10</title>
    <desc>Created with Sketch.</desc>
    <defs></defs>
    <g id="Page-1" stroke="none" stroke-width="1" fill="none" fill-rule="evenodd">
        <g id="Group-10">
            <path d="M4229,1143 C5809.66667,1143 6600,1143 6600,1143 C6600,1143 5538.46714,0 4229,0 C2919.53286,0 1858,1143 1858,1143 C1858,1143 2648.33333,1143 4229,1143 Z" id="Oval-3" fill="#2EA0EE"></path>
            <path d="M2630,1143 C4383.33333,1143 5260,1143 5260,1143 C5260,1143 4082.50889,360 2630,360 C1177.49111,360 0,1143 0,1143 C0,1143 876.666667,1143 2630,1143 Z" id="Oval-3" fill="#FF6182"></path>
            <path d="M5757,1143 C7036.33333,1143 7676,1143 7676,1143 C7676,1143 6816.83443,529 5757,529 C4697.16557,529 3838,1143 3838,1143 C3838,1143 4477.66667,1143 5757,1143 Z" id="Oval-3" fill="#FFCE49"></path>
        </g>
    </g>
</svg>