<?xml version="1.0" encoding="UTF-8"?>
<svg width="7954px" height="1829px" viewBox="0 0 7954 1829" version="1.1" xmlns="http://www.w3.org/2000/svg" xmlns:xlink="http://www.w3.org/1999/xlink">
    <!-- Generator: Sketch 48 (47235) - http://www.bohemiancoding.com/sketch -->
    <title>Slice 2</title>
    <desc>Created with Sketch.</desc>
    <defs></defs>
    <g id="Page-1" stroke="none" stroke-width="1" fill="none" fill-rule="evenodd">
        <g id="Group-10" transform="translate(-1594.000000, 342.000000)">
            <path d="M6139,1815 C8433.66667,1815 9581,1815 9581,1815 C9581,1815 8039.96411,0 6139,0 C4238.03589,0 2697,1815 2697,1815 C2697,1815 3844.33333,1815 6139,1815 Z" id="Oval-3" fill="#2EA0EE"></path>
            <path d="M3818,1815 C6363.33333,1815 7636,1815 7636,1815 C7636,1815 5926.62317,572 3818,572 C1709.37683,572 0,1815 0,1815 C0,1815 1272.66667,1815 3818,1815 Z" id="Oval-3" fill="#FF6182"></path>
            <path d="M8356.5,1815 C10213.5,1815 11142,1815 11142,1815 C11142,1815 9894.88917,840 8356.5,840 C6818.11083,840 5571,1815 5571,1815 C5571,1815 6499.5,1815 8356.5,1815 Z" id="Oval-3" fill="#FFCE49"></path>
        </g>
    </g>
</svg>